<svg width="92" height="85" viewBox="0 0 92 85" fill="none" xmlns="http://www.w3.org/2000/svg">
<path fill-rule="evenodd" clip-rule="evenodd" d="M15.1132 8.48214H13.5448C13.0458 8.48214 12.6181 8.57143 12.3329 8.83928C12.0478 9.01786 11.8339 9.375 11.6913 9.64286C11.5487 9.99999 11.4775 10.3571 11.4062 10.7143L11.4062 10.7143C11.3349 11.1607 11.3349 11.5179 11.3349 11.7857V19.8214C11.3349 20.8036 11.1923 21.6071 10.8359 22.2321C10.4794 22.8571 10.0517 23.3929 9.48138 23.75C8.98236 24.1071 8.34076 24.375 7.77045 24.5536C7.12886 24.7321 6.55855 24.8214 6.05953 24.8214V24.9107C6.50239 24.9107 7.0014 24.981 7.55656 25.0593L7.55665 25.0593L7.77045 25.0893C8.41205 25.1786 8.98236 25.4464 9.48138 25.8036C9.9804 26.1607 10.4794 26.6964 10.8359 27.4107C11.1923 28.125 11.3349 29.1071 11.3349 30.2679V37.8571C11.3349 38.2143 11.3349 38.5714 11.4062 38.9286C11.4775 39.375 11.5487 39.7321 11.7626 40C11.9052 40.3571 12.1903 40.625 12.5468 40.8036C12.9032 40.9821 13.331 41.1607 13.9726 41.1607H15.1845V50H10.123C9.41009 50 8.6972 49.8214 7.98432 49.5536C7.27143 49.2857 6.55855 48.8393 5.91695 48.3036C5.27535 47.7679 4.77633 46.9643 4.3486 46.0714C3.92087 45.1786 3.77829 44.1071 3.77829 42.8571V32.8571C3.77829 32.0536 3.63572 31.4286 3.35056 30.9821C3.06541 30.5357 2.70897 30.1786 2.28123 29.9107C1.8535 29.6429 1.42577 29.4643 0.99804 29.375C0.570309 29.2857 0.213866 29.2857 0 29.2857V20.8036H1.8239e-05C0.285166 20.8036 0.570318 20.8036 0.99804 20.7143H0.998052C1.42578 20.625 1.85351 20.5357 2.20995 20.2679C2.63768 20 2.92283 19.7321 3.27927 19.2857C3.63572 18.8393 3.70701 18.3036 3.70701 17.5893V7.14286C3.70701 5.89286 3.92087 4.82143 4.27731 3.92857C4.70504 3.03571 5.20406 2.32143 5.84566 1.69643C6.48726 1.16071 7.12886 0.714286 7.91303 0.446429C8.62592 0.178571 9.3388 0 10.0517 0H15.1132V8.48214ZM76.8868 8.48214H78.4552C78.9542 8.48214 79.3819 8.57143 79.6671 8.83928C79.9522 9.01786 80.1661 9.375 80.3087 9.64286C80.4513 10 80.5225 10.3571 80.5938 10.7143C80.6651 11.1607 80.6651 11.5179 80.6651 11.7857V19.8214C80.6651 20.8036 80.8077 21.6071 81.1641 22.2321C81.5206 22.8571 81.9483 23.3929 82.5186 23.75C83.0176 24.1071 83.6592 24.375 84.2295 24.5536C84.8711 24.7321 85.4415 24.8214 85.9405 24.8214V24.9107C85.4976 24.9107 84.9986 24.981 84.4434 25.0593L84.2295 25.0893C83.588 25.1786 83.0176 25.4464 82.5186 25.8036C82.0196 26.1607 81.5206 26.6964 81.1641 27.4107C80.8077 28.125 80.6651 29.1071 80.6651 30.2679V37.8571C80.6651 38.2143 80.6651 38.5714 80.5938 38.9286C80.5225 39.375 80.4513 39.7321 80.2374 40C80.0948 40.3571 79.8097 40.625 79.4532 40.8036C79.0968 40.9821 78.669 41.1607 78.0274 41.1607H76.8155V50H81.877C82.5899 50 83.3028 49.8214 84.0157 49.5536C84.7286 49.2857 85.4415 48.8393 86.083 48.3036C86.7246 47.7679 87.2237 46.9643 87.6514 46.0714C88.0791 45.1786 88.2217 44.1071 88.2217 42.8571V32.8571C88.2217 32.0536 88.3643 31.4286 88.6494 30.9821C88.9346 30.5357 89.291 30.1786 89.7188 29.9107C90.1465 29.6429 90.5742 29.4643 91.002 29.375C91.4297 29.2857 91.7861 29.2857 92 29.2857V20.8036C91.7148 20.8036 91.4297 20.8036 91.002 20.7143C90.5742 20.625 90.1465 20.5357 89.7901 20.2679C89.3623 20 89.0772 19.7321 88.7207 19.2857C88.3643 18.8393 88.293 18.3036 88.293 17.5893V7.14286C88.293 5.89286 88.0791 4.82143 87.7227 3.92857C87.295 3.03571 86.7959 2.32143 86.1543 1.69643C85.5127 1.16071 84.8711 0.714286 84.087 0.446429C83.3741 0.178571 82.6612 0 81.9483 0H76.8868V8.48214ZM61.1172 31.5716L31.6266 1.78571H24.6132V8.86923L54.1039 38.6551L48.8501 43.9615L52.3444 47.4907L58.3912 41.3083L66.371 49.2428C67.3375 50.219 68.8988 50.219 69.8653 49.2428L71.6248 47.4657C72.5913 46.4895 72.5913 44.9126 71.6248 43.9365L63.7441 35.9769L69.8653 29.7944L66.371 26.2652L61.1172 31.5716ZM67.3871 8.8442L55.6404 20.7085L48.6271 13.65L60.3737 1.78571H67.3871V8.8442ZM36.3599 26.0399L43.3733 33.2236L37.8964 38.6551L43.1502 43.9615L39.6559 47.4907L33.6091 41.3083L25.6293 49.2679C24.6628 50.244 23.1015 50.244 22.135 49.2679L20.3755 47.4907C19.409 46.5146 19.409 44.9377 20.3755 43.9615L28.2562 35.9769L22.135 29.7944L25.6293 26.2652L30.8831 31.5716L36.3599 26.0399Z" fill="#FFDF00"/>
<path d="M7.058 79.208C5.498 79.208 4.24133 78.7487 3.288 77.83C2.352 76.894 1.884 75.646 1.884 74.086V65.662C1.884 64.1193 2.352 62.8887 3.288 61.97C4.24133 61.0513 5.498 60.592 7.058 60.592C8.63533 60.592 9.892 61.0513 10.828 61.97C11.7813 62.8887 12.258 64.1193 12.258 65.662V65.948C12.258 66.0347 12.2233 66.1127 12.154 66.182C12.102 66.234 12.0327 66.26 11.946 66.26L8.904 66.39C8.696 66.39 8.592 66.2947 8.592 66.104V65.428C8.592 64.9253 8.45333 64.518 8.176 64.206C7.89867 63.894 7.526 63.738 7.058 63.738C6.60733 63.738 6.24333 63.894 5.966 64.206C5.68867 64.518 5.55 64.9253 5.55 65.428V74.398C5.55 74.9007 5.68867 75.308 5.966 75.62C6.24333 75.9147 6.60733 76.062 7.058 76.062C7.526 76.062 7.89867 75.9147 8.176 75.62C8.45333 75.308 8.592 74.9007 8.592 74.398V73.696C8.592 73.6093 8.618 73.54 8.67 73.488C8.73933 73.4187 8.81733 73.384 8.904 73.384L11.946 73.514C12.0327 73.514 12.102 73.5487 12.154 73.618C12.2233 73.67 12.258 73.7393 12.258 73.826V74.086C12.258 75.646 11.7813 76.894 10.828 77.83C9.87467 78.7487 8.618 79.208 7.058 79.208ZM18.8845 79.208C17.8792 79.208 16.9952 79.0087 16.2325 78.61C15.4699 78.2113 14.8805 77.6567 14.4645 76.946C14.0485 76.218 13.8405 75.386 13.8405 74.45V73.696C13.8405 73.6093 13.8665 73.54 13.9185 73.488C13.9879 73.4187 14.0659 73.384 14.1525 73.384H17.1425C17.2292 73.384 17.2985 73.4187 17.3505 73.488C17.4199 73.54 17.4545 73.6093 17.4545 73.696V74.268C17.4545 74.8053 17.5932 75.2387 17.8705 75.568C18.1479 75.8973 18.4945 76.062 18.9105 76.062C19.3265 76.062 19.6732 75.906 19.9505 75.594C20.2279 75.282 20.3665 74.8747 20.3665 74.372C20.3665 73.852 20.1932 73.41 19.8465 73.046C19.4999 72.6647 18.8239 72.11 17.8185 71.382C16.9519 70.758 16.2499 70.2033 15.7125 69.718C15.1752 69.2327 14.7159 68.6347 14.3345 67.924C13.9532 67.2133 13.7625 66.39 13.7625 65.454C13.7625 63.9807 14.2219 62.802 15.1405 61.918C16.0592 61.034 17.2725 60.592 18.7805 60.592C20.3059 60.592 21.5279 61.0513 22.4465 61.97C23.3825 62.8887 23.8505 64.0933 23.8505 65.584V66.208C23.8505 66.2947 23.8159 66.3727 23.7465 66.442C23.6945 66.494 23.6252 66.52 23.5385 66.52H20.5485C20.4619 66.52 20.3839 66.494 20.3145 66.442C20.2625 66.3727 20.2365 66.2947 20.2365 66.208V65.506C20.2365 64.9687 20.0979 64.544 19.8205 64.232C19.5605 63.9027 19.2139 63.738 18.7805 63.738C18.3645 63.738 18.0265 63.894 17.7665 64.206C17.5065 64.5007 17.3765 64.9167 17.3765 65.454C17.3765 65.974 17.5412 66.4333 17.8705 66.832C18.1999 67.2307 18.8499 67.7853 19.8205 68.496C20.8952 69.2933 21.7012 69.9433 22.2385 70.446C22.7932 70.9313 23.2179 71.4773 23.5125 72.084C23.8245 72.6733 23.9805 73.384 23.9805 74.216C23.9805 75.7413 23.5125 76.9547 22.5765 77.856C21.6405 78.7573 20.4099 79.208 18.8845 79.208ZM30.4373 79.208C29.4319 79.208 28.5479 79.0087 27.7853 78.61C27.0226 78.2113 26.4333 77.6567 26.0173 76.946C25.6013 76.218 25.3933 75.386 25.3933 74.45V73.696C25.3933 73.6093 25.4193 73.54 25.4713 73.488C25.5406 73.4187 25.6186 73.384 25.7053 73.384H28.6953C28.7819 73.384 28.8513 73.4187 28.9033 73.488C28.9726 73.54 29.0073 73.6093 29.0073 73.696V74.268C29.0073 74.8053 29.1459 75.2387 29.4233 75.568C29.7006 75.8973 30.0473 76.062 30.4633 76.062C30.8793 76.062 31.2259 75.906 31.5033 75.594C31.7806 75.282 31.9193 74.8747 31.9193 74.372C31.9193 73.852 31.7459 73.41 31.3993 73.046C31.0526 72.6647 30.3766 72.11 29.3713 71.382C28.5046 70.758 27.8026 70.2033 27.2653 69.718C26.7279 69.2327 26.2686 68.6347 25.8873 67.924C25.5059 67.2133 25.3153 66.39 25.3153 65.454C25.3153 63.9807 25.7746 62.802 26.6933 61.918C27.6119 61.034 28.8253 60.592 30.3333 60.592C31.8586 60.592 33.0806 61.0513 33.9993 61.97C34.9353 62.8887 35.4033 64.0933 35.4033 65.584V66.208C35.4033 66.2947 35.3686 66.3727 35.2993 66.442C35.2473 66.494 35.1779 66.52 35.0913 66.52H32.1013C32.0146 66.52 31.9366 66.494 31.8673 66.442C31.8153 66.3727 31.7893 66.2947 31.7893 66.208V65.506C31.7893 64.9687 31.6506 64.544 31.3733 64.232C31.1133 63.9027 30.7666 63.738 30.3333 63.738C29.9173 63.738 29.5793 63.894 29.3193 64.206C29.0593 64.5007 28.9293 64.9167 28.9293 65.454C28.9293 65.974 29.0939 66.4333 29.4233 66.832C29.7526 67.2307 30.4026 67.7853 31.3733 68.496C32.4479 69.2933 33.2539 69.9433 33.7913 70.446C34.3459 70.9313 34.7706 71.4773 35.0653 72.084C35.3773 72.6733 35.5333 73.384 35.5333 74.216C35.5333 75.7413 35.0653 76.9547 34.1293 77.856C33.1933 78.7573 31.9626 79.208 30.4373 79.208ZM47.6858 73.982C47.6858 75.594 47.2005 76.8333 46.2298 77.7C45.2592 78.5667 44.0025 79 42.4598 79H37.5458C37.4592 79 37.3812 78.974 37.3118 78.922C37.2598 78.8527 37.2338 78.7747 37.2338 78.688V61.112C37.2338 61.0253 37.2598 60.956 37.3118 60.904C37.3812 60.8347 37.4592 60.8 37.5458 60.8H41.8878C43.6212 60.8 44.9732 61.216 45.9438 62.048C46.9318 62.88 47.4258 64.1193 47.4258 65.766C47.4258 67.482 46.8365 68.73 45.6578 69.51C45.5885 69.562 45.5798 69.614 45.6318 69.666C47.0012 70.6367 47.6858 72.0753 47.6858 73.982ZM41.0298 63.946C40.9432 63.946 40.8998 63.9893 40.8998 64.076V68.158C40.8998 68.2447 40.9432 68.288 41.0298 68.288H41.9658C42.5552 68.288 43.0145 68.106 43.3438 67.742C43.6732 67.3607 43.8378 66.832 43.8378 66.156C43.8378 65.4453 43.6732 64.8993 43.3438 64.518C43.0318 64.1367 42.5725 63.946 41.9658 63.946H41.0298ZM42.1738 75.828C42.7458 75.828 43.1965 75.62 43.5258 75.204C43.8552 74.788 44.0198 74.1987 44.0198 73.436C44.0198 72.6733 43.8552 72.0667 43.5258 71.616C43.1965 71.1653 42.7545 70.94 42.1998 70.94H41.0298C40.9432 70.94 40.8998 70.9833 40.8998 71.07V75.698C40.8998 75.7847 40.9432 75.828 41.0298 75.828H42.1738ZM54.1267 65.428C55.6001 65.428 56.7961 65.8267 57.7147 66.624C58.6334 67.4213 59.0927 68.47 59.0927 69.77V78.688C59.0927 78.7747 59.0581 78.8527 58.9887 78.922C58.9367 78.974 58.8674 79 58.7807 79H55.7387C55.6521 79 55.5741 78.974 55.5047 78.922C55.4527 78.8527 55.4267 78.7747 55.4267 78.688V78.116C55.4267 78.064 55.4094 78.0293 55.3747 78.012C55.3401 77.9947 55.3054 78.012 55.2707 78.064C54.6987 78.792 53.8147 79.1733 52.6187 79.208C51.6134 79.208 50.7381 78.9307 49.9927 78.376C49.2647 77.8213 48.9007 76.764 48.9007 75.204C48.9007 73.592 49.3427 72.4827 50.2267 71.876C51.1281 71.2693 52.4194 70.966 54.1007 70.966H55.2967C55.3834 70.966 55.4267 70.9227 55.4267 70.836V70.186C55.4267 69.718 55.2967 69.3367 55.0367 69.042C54.7941 68.73 54.4821 68.574 54.1007 68.574C53.8061 68.574 53.5547 68.6693 53.3467 68.86C53.1561 69.0333 53.0347 69.2847 52.9827 69.614C52.9654 69.822 52.8527 69.926 52.6447 69.926L49.5247 69.9C49.3167 69.9 49.2127 69.796 49.2127 69.588C49.2994 68.3227 49.7934 67.3173 50.6947 66.572C51.5961 65.8093 52.7401 65.428 54.1267 65.428ZM53.8667 76.374C54.2654 76.374 54.6207 76.244 54.9327 75.984C55.2621 75.7067 55.4267 75.3427 55.4267 74.892V73.67C55.4267 73.5833 55.3834 73.54 55.2967 73.54H54.2307C53.7627 73.54 53.3814 73.6787 53.0867 73.956C52.8094 74.216 52.6707 74.58 52.6707 75.048C52.6707 75.4813 52.7747 75.8107 52.9827 76.036C53.2081 76.2613 53.5027 76.374 53.8667 76.374ZM66.9783 67.898C66.9783 67.9847 66.9436 68.0627 66.8743 68.132C66.8223 68.184 66.7529 68.21 66.6663 68.21H65.2103C65.1236 68.21 65.0803 68.2533 65.0803 68.34V74.528C65.0803 75.0307 65.1756 75.3773 65.3663 75.568C65.5569 75.7587 65.8429 75.8453 66.2243 75.828H66.4062C66.4929 75.828 66.5623 75.8627 66.6143 75.932C66.6836 75.984 66.7183 76.0533 66.7183 76.14V78.688C66.7183 78.7747 66.6836 78.8527 66.6143 78.922C66.5623 78.974 66.4929 79 66.4062 79H65.3663C64.1009 79 63.1476 78.792 62.5063 78.376C61.8649 77.9427 61.5443 77.128 61.5443 75.932V68.34C61.5443 68.2533 61.5009 68.21 61.4143 68.21H60.5563C60.4696 68.21 60.3916 68.184 60.3223 68.132C60.2703 68.0627 60.2443 67.9847 60.2443 67.898V65.948C60.2443 65.8613 60.2703 65.792 60.3223 65.74C60.3916 65.6707 60.4696 65.636 60.5563 65.636H61.4143C61.5009 65.636 61.5443 65.5927 61.5443 65.506V62.62C61.5443 62.5333 61.5703 62.464 61.6222 62.412C61.6916 62.3427 61.7696 62.308 61.8563 62.308H64.7683C64.8549 62.308 64.9243 62.3427 64.9763 62.412C65.0456 62.464 65.0803 62.5333 65.0803 62.62V65.506C65.0803 65.5927 65.1236 65.636 65.2103 65.636H66.6663C66.7529 65.636 66.8223 65.6707 66.8743 65.74C66.9436 65.792 66.9783 65.8613 66.9783 65.948V67.898ZM74.5447 67.898C74.5447 67.9847 74.51 68.0627 74.4407 68.132C74.3887 68.184 74.3193 68.21 74.2327 68.21H72.7767C72.69 68.21 72.6467 68.2533 72.6467 68.34V74.528C72.6467 75.0307 72.742 75.3773 72.9327 75.568C73.1233 75.7587 73.4093 75.8453 73.7907 75.828H73.9727C74.0593 75.828 74.1287 75.8627 74.1807 75.932C74.25 75.984 74.2847 76.0533 74.2847 76.14V78.688C74.2847 78.7747 74.25 78.8527 74.1807 78.922C74.1287 78.974 74.0593 79 73.9727 79H72.9327C71.6673 79 70.714 78.792 70.0727 78.376C69.4313 77.9427 69.1107 77.128 69.1107 75.932V68.34C69.1107 68.2533 69.0673 68.21 68.9807 68.21H68.1227C68.036 68.21 67.958 68.184 67.8887 68.132C67.8367 68.0627 67.8107 67.9847 67.8107 67.898V65.948C67.8107 65.8613 67.8367 65.792 67.8887 65.74C67.958 65.6707 68.036 65.636 68.1227 65.636H68.9807C69.0673 65.636 69.1107 65.5927 69.1107 65.506V62.62C69.1107 62.5333 69.1367 62.464 69.1887 62.412C69.258 62.3427 69.336 62.308 69.4227 62.308H72.3347C72.4213 62.308 72.4907 62.3427 72.5427 62.412C72.612 62.464 72.6467 62.5333 72.6467 62.62V65.506C72.6467 65.5927 72.69 65.636 72.7767 65.636H74.2327C74.3193 65.636 74.3887 65.6707 74.4407 65.74C74.51 65.792 74.5447 65.8613 74.5447 65.948V67.898ZM76.2351 79C76.1484 79 76.0704 78.974 76.0011 78.922C75.9491 78.8527 75.9231 78.7747 75.9231 78.688V61.112C75.9231 61.0253 75.9491 60.956 76.0011 60.904C76.0704 60.8347 76.1484 60.8 76.2351 60.8H79.2771C79.3637 60.8 79.4331 60.8347 79.4851 60.904C79.5544 60.956 79.5891 61.0253 79.5891 61.112V78.688C79.5891 78.7747 79.5544 78.8527 79.4851 78.922C79.4331 78.974 79.3637 79 79.2771 79H76.2351ZM91.1067 73.15C91.1067 73.2367 91.072 73.3147 91.0027 73.384C90.9507 73.436 90.8813 73.462 90.7947 73.462H85.0747C84.988 73.462 84.9447 73.5053 84.9447 73.592V74.554C84.9447 74.9873 85.0573 75.3513 85.2827 75.646C85.5253 75.9233 85.8287 76.062 86.1927 76.062C86.522 76.062 86.7907 75.958 86.9987 75.75C87.2067 75.5247 87.3453 75.2473 87.4147 74.918C87.4667 74.7447 87.5793 74.658 87.7527 74.658L90.7427 74.814C90.8293 74.814 90.8987 74.8487 90.9507 74.918C91.02 74.97 91.046 75.048 91.0287 75.152C90.9073 76.4867 90.4393 77.5007 89.6247 78.194C88.8273 78.87 87.6833 79.208 86.1927 79.208C84.65 79.208 83.4453 78.8267 82.5787 78.064C81.712 77.284 81.2787 76.2093 81.2787 74.84V69.796C81.2787 68.4787 81.712 67.4213 82.5787 66.624C83.4627 65.8267 84.6673 65.428 86.1927 65.428C87.718 65.428 88.914 65.8267 89.7807 66.624C90.6647 67.4213 91.1067 68.4787 91.1067 69.796V73.15ZM86.1927 68.574C85.8287 68.574 85.5253 68.7127 85.2827 68.99C85.0573 69.2673 84.9447 69.6227 84.9447 70.056V71.07C84.9447 71.1567 84.988 71.2 85.0747 71.2H87.3107C87.3973 71.2 87.4407 71.1567 87.4407 71.07V70.056C87.4407 69.6227 87.3193 69.2673 87.0767 68.99C86.8513 68.7127 86.5567 68.574 86.1927 68.574Z" fill="#FFDF00"/>
</svg>
